{"title":"Enkelstöten S01 E01 - 720p x265 HEVC - SWE (ENG SUBS) [BRSHNKV]","magnet":"magnet:?xt=urn:btih:1401881a212b9df4b082cdbb9494bc892564d558&dn=Enkelsto%CC%88ten+S01+E01+-+720p+x265+HEVC+-+SWE+%28ENG+SUBS%29+%5BBRSHNKV%5D&tr=udp%3A%2F%2Ftracker.leechers-paradise.org%3A6969&tr=udp%3A%2F%2Fzer0day.ch%3A1337&tr=udp%3A%2F%2Fopen.demonii.com%3A1337&tr=udp%3A%2F%2Ftracker.coppersurfer.tk%3A6969&tr=udp%3A%2F%2Fexodus.desync.com%3A6969","uploader":"BRSHNKV","categoryP":"video","categoryS":"hd___tv_shows","size":"387350469","seeders":"0","leechers":"0","description":"Jenny and Cecilia are two women in their 60s who live a regular middle class life in Kalmar. But when both realize that the future is anything but light for them, they decide to do something drastic, robbing a bank office in Stockholm.\r\n\r\n\r\nTech:\r\n\r\nFormat                                   : MPEG-4\r\nFormat profile                           : Base Media / Version 2\r\nCodec ID                                 : mp42\r\nFile size                                : 369 MiB\r\nDuration                                 : 44mn 12s\r\nOverall bit rate mode                    : Variable\r\nOverall bit rate                         : 1 168 Kbps\r\nMovie name                               : Enkelsto&#x308;ten S01 E01 - 720p x265 HEVC [BRSHNKV]\r\nEncoded date                             : UTC 2018-03-13 23:43:59\r\nTagged date                              : UTC 2018-03-13 23:43:59\r\nWriting application                      : HandBrake 20160211184813-ffd8cb1-master 2016021301\r\n\r\nVideo\r\nID                                       : 1\r\nFormat                                   : HEVC\r\nFormat/Info                              : High Efficiency Video Coding\r\nFormat profile                           : Main <a href=\"/cdn-cgi/l/email-protection\" class=\"__cf_email__\" data-cfemail=\"bc8d8cfcf08f928d\">[email&#xA0;protected]</a>@Main\r\nCodec ID                                 : hev1\r\nCodec ID/Info                            : High Efficiency Video Coding\r\nDuration                                 : 44mn 12s\r\nBit rate                                 : 1 002 Kbps\r\nWidth                                    : 1 280 pixels\r\nHeight                                   : 720 pixels\r\nDisplay aspect ratio                     : 16:9\r\nFrame rate mode                          : Constant\r\nFrame rate                               : 25.000 fps\r\nColor space                              : YUV\r\nChroma subsampling                       : 4:2:0\r\nBit depth                                : 10 bits\r\nBits/(Pixel*Frame)                       : 0.043\r\nStream size                              : 317 MiB (86%)\r\nWriting library                          : x265 1.9:[Mac OS X][clang 7.0.2][64 bit] 10bit\r\nEncoded date                             : UTC 2018-03-13 23:43:59\r\nTagged date                              : UTC 2018-03-13 23:43:59\r\nColor range                              : Limited\r\nColor primaries                          : BT.709\r\nTransfer characteristics                 : BT.709\r\nMatrix coefficients                      : BT.709\r\n\r\nAudio\r\nID                                       : 2\r\nFormat                                   : AAC\r\nFormat/Info                              : Advanced Audio Codec\r\nFormat profile                           : LC\r\nCodec ID                                 : 40\r\nDuration                                 : 44mn 12s\r\nBit rate mode                            : Variable\r\nBit rate                                 : 160 Kbps\r\nChannel(s)                               : 2 channels\r\nChannel positions                        : Front: L R\r\nSampling rate                            : 48.0 KHz\r\nCompression mode                         : Lossy\r\nStream size                              : 50.7 MiB (14%)\r\nTitle                                    : Stereo / Stereo\r\nLanguage                                 : Swedish\r\nEncoded date                             : UTC 2018-03-13 23:43:59\r\nTagged date                              : UTC 2018-03-13 23:43:59","last_updated":"2018-03-14T12:01:30.852Z","parsed":{"xt":"urn:btih:1401881a212b9df4b082cdbb9494bc892564d558","dn":"Enkelstöten S01 E01 - 720p x265 HEVC - SWE (ENG SUBS) [BRSHNKV]","tr":["udp://exodus.desync.com:6969","udp://open.demonii.com:1337","udp://tracker.coppersurfer.tk:6969","udp://tracker.leechers-paradise.org:6969","udp://zer0day.ch:1337"],"infoHash":"1401881a212b9df4b082cdbb9494bc892564d558","infoHashBuffer":{"type":"Buffer","data":[20,1,136,26,33,43,157,244,176,130,205,187,148,148,188,137,37,100,213,88]},"name":"Enkelstöten S01 E01 - 720p x265 HEVC - SWE (ENG SUBS) [BRSHNKV]","announce":["udp://exodus.desync.com:6969","udp://open.demonii.com:1337","udp://tracker.coppersurfer.tk:6969","udp://tracker.leechers-paradise.org:6969","udp://zer0day.ch:1337"],"urlList":[]}}